
      <svg data-logo="logo" xmlns="http://www.w3.org/2000/svg" viewBox="0 0 128 43">
        <g id="logogram" transform="translate(0, 1) rotate(0) "><path d="M0.301758 30.08L0.301761 10.08L10.3018 15.6355V24.5799L18.3018 29.08L26.3018 24.5799V15.6355L36.3019 10.08V30.08L18.3018 40.08L0.301758 30.08Z" fill="#1E1C22"/><path fill-rule="evenodd" clip-rule="evenodd" d="M5.30177 12.8578L0.301758 10.08L18.3018 0.0799561L36.3019 10.08L31.3018 12.8578V27.58L18.3018 35.08L5.30176 27.58L5.30177 12.8578ZM30.7602 13.1587L26.3018 15.6355V15.58L18.3018 11.0799L10.3018 15.58V15.6355L5.84343 13.1587V27.2723L18.3018 34.4598L30.7602 27.2723V13.1587Z" fill="url(#paint0_linear_5558_2243)"/></g>
        <g id="logotype" transform="translate(43, 1)"><path fill="#d9613f" d="M18.85 20.82L12.15 28.24L12.15 23.49Q12.94 22.07 13.69 20.88Q14.44 19.68 15.35 18.47Q16.25 17.27 17.42 15.85L17.42 15.85L23.65 8.54L30.03 8.54L19.28 20.98L18.85 20.82ZM13.52 34L8.31 34L8.31 8.54L13.52 8.54L13.52 15.49L13.42 21.99L13.52 24.53L13.52 34ZM30.30 34L24.13 34L16.58 22.52L19.88 18.62L30.30 34ZM36.21 34L31.09 34L31.09 14.89L36.04 14.89L36.04 18.23L36.25 18.23Q36.78 16.45 38.02 15.54Q39.25 14.64 40.86 14.64L40.86 14.64Q41.25 14.64 41.71 14.68Q42.16 14.72 42.52 14.81L42.52 14.81L42.52 19.39Q42.18 19.27 41.53 19.20Q40.88 19.13 40.30 19.13L40.30 19.13Q39.14 19.13 38.20 19.64Q37.26 20.14 36.73 21.04Q36.21 21.93 36.21 23.13L36.21 23.13L36.21 34ZM42.93 40.77L42.93 40.77L44.11 36.91L44.74 37.06Q45.76 37.33 46.57 37.21Q47.37 37.09 47.86 36.56Q48.34 36.03 48.45 35.08L48.45 35.08L48.58 34.05L41.41 14.89L46.86 14.89L50.07 24.81Q50.65 26.69 51.02 28.57Q51.39 30.45 51.87 32.50L51.87 32.50L50.67 32.50Q51.13 30.45 51.59 28.56Q52.05 26.67 52.67 24.81L52.67 24.81L56.02 14.89L61.40 14.89L53.28 36.26Q52.70 37.79 51.80 38.92Q50.89 40.05 49.54 40.67Q48.19 41.28 46.28 41.28L46.28 41.28Q45.25 41.28 44.36 41.14Q43.47 40.99 42.93 40.77ZM60.01 14.89L72.49 14.89L72.49 18.81L60.01 18.81L60.01 14.89ZM68.49 34L63.38 34L63.38 13.42Q63.38 11.39 64.19 10.04Q65.01 8.69 66.41 8.01Q67.81 7.34 69.59 7.34L69.59 7.34Q70.80 7.34 71.80 7.54Q72.80 7.73 73.26 7.87L73.26 7.87L72.34 11.73Q72.01 11.65 71.58 11.56Q71.14 11.48 70.63 11.48L70.63 11.48Q69.47 11.48 68.98 12.03Q68.49 12.59 68.49 13.59L68.49 13.59L68.49 34ZM71.67 14.89L83.00 14.89L83.00 18.81L71.67 18.81L71.67 14.89ZM74.30 28.86L74.30 10.35L79.43 10.35L79.43 28.41Q79.43 29.32 79.83 29.75Q80.23 30.19 81.17 30.19L81.17 30.19Q81.46 30.19 81.99 30.11Q82.52 30.04 82.79 29.97L82.79 29.97L83.53 33.81Q82.67 34.07 81.83 34.17Q80.98 34.27 80.21 34.27L80.21 34.27Q77.34 34.27 75.82 32.87Q74.30 31.47 74.30 28.86L74.30 28.86Z"/></g>
        <defs xmlns="http://www.w3.org/2000/svg">
<linearGradient id="paint0_linear_5558_2243" x1="5.30176" y1="7.85773" x2="32.3018" y2="7.85774" gradientUnits="userSpaceOnUse">
<stop stop-color="#D15533"/>
<stop offset="0.307292" stop-color="#F29D93"/>
<stop offset="0.604167" stop-color="#EBA89E"/>
<stop offset="1" stop-color="#D86F4C"/>
</linearGradient>
</defs>
      </svg>
    