<svg viewBox="0 0 37 41" xmlns="http://www.w3.org/2000/svg" data-logo="logo">
        <g transform="translate(0, 0) rotate(0)" id="logogram" style="opacity: 1;"><path fill="#35303C" d="M0.301758 30.08L0.301761 10.08L10.3018 15.6355V24.5799L18.3018 29.08L26.3018 24.5799V15.6355L36.3019 10.08V30.08L18.3018 40.08L0.301758 30.08Z"></path><path fill="url(#paint0_linear_5558_2243)" d="M5.30177 12.8578L0.301758 10.08L18.3018 0.0799561L36.3019 10.08L31.3018 12.8578V27.58L18.3018 35.08L5.30176 27.58L5.30177 12.8578ZM30.7602 13.1587L26.3018 15.6355V15.58L18.3018 11.0799L10.3018 15.58V15.6355L5.84343 13.1587V27.2723L18.3018 34.4598L30.7602 27.2723V13.1587Z" clip-rule="evenodd" fill-rule="evenodd"></path></g>
        <g transform="translate(37, 20.5)" id="logotype" style="opacity: 1;"></g>
        <defs xmlns="http://www.w3.org/2000/svg">
<linearGradient gradientUnits="userSpaceOnUse" y2="7.85774" x2="32.3018" y1="7.85773" x1="5.30176" id="paint0_linear_5558_2243">
<stop stop-color="#D15533"></stop>
<stop stop-color="#F29D93" offset="0.307292"></stop>
<stop stop-color="#EBA89E" offset="0.604167"></stop>
<stop stop-color="#D86F4C" offset="1"></stop>
</linearGradient>
</defs>
      </svg>